<svg xmlns="http://www.w3.org/2000/svg" xmlns:xlink="http://www.w3.org/1999/xlink" version="1.1" x="0px" y="0px" viewBox="0 0 100 125" enable-background="new 0 0 100 100" xml:space="preserve"><g><path d="M76.1,50.8c-0.6-1.2-1.1-2.6-1.5-4.1c-0.8-2.7-1.3-5.8-1.4-9c0-0.1,0-0.2,0-0.2c0-0.4,0-0.7,0-1l0-0.2c0-0.4,0-0.6,0-0.6   c0-0.2,0-0.5-0.1-0.7c-1.1-9.9-8.5-17.9-17.9-20v-4.7c0-1.2-1-2.2-2.2-2.2c-0.7,0-1.3,0.3-1.7,0.8V8.1c0-1.2-1-2.2-2.2-2.2   c-1.2,0-2.2,1-2.2,2.2v0.4c-0.3-0.4-0.5-0.7-0.8-1c-0.5-0.5-0.8-0.8-1.2-1.4c-0.9-1.1-1.9-2.3-3.4-3.5c-0.9,1.7-1.1,3.4-0.9,5.2   c0.1,0.9,0.4,1.9,0.8,2.7c0.3,0.7,0.7,1.3,1,1.9c0.6,1,1.2,2,1.8,3C35.1,17.8,28.3,25.5,27.3,35c-0.1,0.2-0.1,0.4-0.1,0.7   c0,0,0,0.2,0,0.6l0,0.2c0,0.3,0,0.6,0,1c0,0.1,0,0.2,0,0.2c-0.2,3.2-0.7,6.3-1.4,9c-0.4,1.4-0.9,2.6-1.4,3.8   c-6.3,4.6-10.2,11-10.2,18.5C14.1,84,30.2,97.5,50,97.5S85.9,84,85.9,68.9C85.9,61.7,82.2,55.4,76.1,50.8z M25.2,53.9   c1.1-1.8,1.9-3.7,2.5-5.6c0,0,0,0,0,0h0c0.1-0.3,0.2-0.7,0.3-1c1.1-3.8,1.4-7.4,1.5-9.6c0-0.1,0-0.2,0-0.3c0-0.4,0-0.7,0.1-1.1   c0-0.4,0-0.7,0-0.7l0,0c0.8-9,7.2-16.3,15.8-18.3l0,0c0.6-0.1,1.2-0.3,1.8-0.3c0.2,0,0.4-0.1,0.7-0.1c0.2,0,0.5,0,0.7-0.1   c0.5,0,1.1-0.1,1.6-0.1c0.6,0,1.1,0,1.7,0.1c0.2,0,0.5,0,0.7,0.1c0.2,0,0.4,0.1,0.7,0.1c0.7,0.1,1.3,0.2,2,0.4   c8.4,2.1,14.8,9.4,15.6,18.3l0,0c0,0,0,0.3,0,0.7c0,0.4,0.1,0.7,0.1,1.1c0,0.1,0,0.2,0,0.3c0.1,2.2,0.4,5.8,1.5,9.6   c0.1,0.4,0.2,0.8,0.4,1.2c0,0,0,0,0,0c0.6,1.8,1.4,3.7,2.4,5.4c0.2,0.3,0.3,0.5,0.5,0.8c0,0,0,0,0,0c0.2,0.4,0.4,0.8,0.6,1.1   c0,0,0,0,0,0.1c0.2,0.4,0.3,0.7,0.5,1.1c0,0.1,0.1,0.2,0.1,0.3c0.1,0.3,0.2,0.6,0.4,0.9c0.2,0.4,0.3,0.9,0.5,1.3   c-0.1,0-0.1,0.1-0.2,0.1c0,0,0,0,0,0c-1.2,0.8-2.5,1.2-3.9,1.2c-1.6,0-3.3-0.6-4.6-1.8c-0.1-0.1-0.2-0.2-0.2-0.2   c0.1,0.1,0.2,0.3,0.3,0.5c1.9,3.3,0.7,7.5-2.6,9.4c-1.1,0.6-2.2,0.9-3.4,0.9c-2.4,0-4.7-1.3-6-3.5c-0.1-0.2-0.2-0.4-0.3-0.6   c0,0.3,0,0.6,0,0.9c-0.1,3.6-3,6.5-6.5,6.7c-3.5-0.2-6.4-3-6.5-6.7c0-0.3,0-0.6,0-0.9c-0.1,0.2-0.2,0.4-0.3,0.6   c-1.3,2.3-3.6,3.5-6,3.5c-1.1,0-2.3-0.3-3.4-0.9c-3.3-1.9-4.5-6.1-2.6-9.4c0.1-0.2,0.2-0.3,0.3-0.5c-0.1,0.1-0.2,0.1-0.2,0.2   c-1.3,1.2-3,1.8-4.6,1.8c-1.5,0-2.9-0.5-4.1-1.4C23.3,57.6,24.1,55.6,25.2,53.9z M50,94.7c-15.7,0-28.4-11.6-28.4-27.4   c0-1.8,0.2-3.5,0.5-5.3c1.4,0.8,3.1,1.3,4.7,1.3c0.4,0,0.9,0,1.3-0.1c0.1,3.1,1.8,6,4.7,7.7c1.4,0.8,2.9,1.2,4.5,1.2   c1.8,0,3.5-0.5,5-1.5c1.5,2.8,4.3,4.7,7.7,4.9c0,0,0.1,0,0.1,0c0,0,0.1,0,0.1,0c3.4-0.2,6.2-2.1,7.7-4.9c1.5,0.9,3.2,1.5,5,1.5   c1.6,0,3.2-0.4,4.5-1.2c2.9-1.6,4.6-4.6,4.7-7.7c0.4,0.1,0.9,0.1,1.3,0.1c1.6,0,3.1-0.4,4.5-1.2c0.3,1.7,0.5,3.4,0.5,5.1   C78.4,83.1,65.7,94.7,50,94.7z"/><path d="M40.3,39.7c1.2,0,2.3-1,2.3-2.3v-2c0-1.2-1-2.3-2.3-2.3c-1.2,0-2.3,1-2.3,2.3v2C38.1,38.7,39.1,39.7,40.3,39.7z"/><path d="M59.7,39.7c1.2,0,2.3-1,2.3-2.3v-2c0-1.2-1-2.3-2.3-2.3c-1.2,0-2.3,1-2.3,2.3v2C57.4,38.7,58.4,39.7,59.7,39.7z"/><path d="M46.2,52.9c0.8,0,1.6-0.3,2.2-0.9l0,0c0.4,0.6,0.9,1,1.5,1c0.6,0,1.2-0.4,1.5-1l0,0c0.6,0.6,1.4,0.9,2.2,0.9   c0.8,0,1.5-0.3,2-0.8c1.3-1.3,1.3-3.9,1.3-5.3v-0.2c0-2-0.9-3.8-2.1-5.2c-1-1.7-2.9-2.8-5.1-2.8c-2.2,0-4.1,1.1-5.1,2.8   c-1.2,1.4-2,3.2-2,5.2v0.2c0,1.4,0,4,1.3,5.3C44.7,52.6,45.4,52.9,46.2,52.9z M45.1,43.5c0.3-2.3,2.4-4,4.9-4c2.5,0,4.6,1.7,4.9,4   c0.1,0.5,0,0.9-0.2,1.3l-4,6.6c-0.4,0.7-1,0.7-1.5,0l-4-6.6C45.1,44.5,45,44,45.1,43.5z"/></g><text x="0" y="115" fill="#000000" font-size="5px" font-weight="bold" font-family="'Helvetica Neue', Helvetica, Arial-Unicode, Arial, Sans-serif">Created by Javier Cabezas</text><text x="0" y="120" fill="#000000" font-size="5px" font-weight="bold" font-family="'Helvetica Neue', Helvetica, Arial-Unicode, Arial, Sans-serif">from the Noun Project</text></svg>