<svg xmlns="http://www.w3.org/2000/svg" xmlns:xlink="http://www.w3.org/1999/xlink" version="1.1" x="0px" y="0px" viewBox="0 0 100 125" enable-background="new 0 0 100 100" xml:space="preserve"><path d="M98.541,41.043l-8.036-6.234l2.311-9.319c0.133-0.536-0.194-1.079-0.73-1.211c-0.528-0.134-1.077,0.194-1.211,0.73  l-1.959,7.902L81.839,22.44c-0.308-0.457-0.931-0.577-1.388-0.269c-0.458,0.309-0.578,0.931-0.269,1.389l6.409,9.485  c-12.565-5.461-12.741-5.461-12.997-5.461c-0.553,0-1,0.448-1,1c0,0.469,0.322,0.862,0.758,0.971  c0.794,0.281,8.719,3.706,14.523,6.231L77.634,51.98c-0.699-9.28-3.44-17.459-8.069-17.459c-1.737,0-3.204,1.163-4.401,3.093  c-1.291-2.544-2.957-4.115-4.985-4.115c-4.138,0-6.767,6.535-7.777,14.549c-1.437-2.087-3.83-5.403-7.728-10.777l15.296-7.883  c0.491-0.253,0.684-0.856,0.431-1.347c-0.254-0.491-0.857-0.686-1.347-0.431L46.057,34.31l6.961-10.767  c0.3-0.464,0.167-1.083-0.297-1.383c-0.464-0.3-1.083-0.167-1.383,0.297l-7.422,11.479l-0.99-11.026  c-0.05-0.55-0.533-0.948-1.085-0.907c-0.55,0.049-0.956,0.536-0.907,1.085l1.198,13.334l-5.711,4.665  c-0.455,0.313-0.571,0.935-0.259,1.391c0.194,0.282,0.507,0.434,0.826,0.434c0.195,0,0.392-0.057,0.565-0.175l5.39-4.445  c1.88,2.596,4.198,5.82,6.088,8.487c-3.095-0.587-8.42-0.816-14.415,2.358L19.05,36.796c0.096-1.335,0.189-3.108,0.19-4.956  c0.124,0.053,0.247,0.108,0.371,0.157c-0.039,1.759,0.675,5.136,3.659,5.398c0.118,0.01,0.231,0.015,0.341,0.015  c1.047,0,1.717-0.448,2.104-0.846c0.934-0.957,1.074-2.443,1.069-3.299c0.07,0,0.146,0.004,0.215,0.004  c2.457,0,4.264-0.339,4.42-0.37c0.384-0.074,0.672-0.366,0.713-0.723c0.041-0.356-0.174-0.697-0.532-0.843l-7.291-2.969l5.038-2.671  c0.348-0.185,0.521-0.556,0.425-0.913c-0.095-0.357-0.437-0.614-0.838-0.631L18.07,23.688c-0.303-0.597-0.672-1.045-1.134-1.261  c-0.734-0.342-1.774-0.369-2.93-0.151c-0.175-0.082-0.419-0.191-0.714-0.312h0c-2.015-0.824-6.491-2.203-8.778,0.64  c-0.654,0.172-1.86,0.621-2.494,1.675c-0.317,0.527-0.605,1.411-0.182,2.632c0.27,0.778,0.698,1.319,1.2,1.697  c-0.345,0.116-0.678,0.266-0.965,0.493c-0.617,0.488-0.958,1.191-0.986,2.032c-0.042,1.254,0.476,1.971,0.917,2.352  c0.694,0.599,1.59,0.723,2.21,0.723c0.07,0,0.132-0.003,0.194-0.005c0.546,5.793,4.187,6.698,5.979,7.135  c0.288,0.07,0.682,0.166,0.719,0.168c0.08,0.087,0.279,0.313,0.576,0.648c9.399,10.62,13.409,14.472,15.265,15.905  c-0.52,0.284-1.205,0.526-1.906,0.524c-0.925-0.01-1.813-0.45-2.641-1.309c-2.798-2.906-10.669-8.989-15.836-8.135  c-1.742,0.288-3.081,1.332-3.873,3.019c-3.449,7.353,3.473,20.979,11.355,26.176c0.166,0.109,0.357,0.165,0.55,0.165  c0.119,0,0.238-0.021,0.352-0.063c0.299-0.112,0.527-0.361,0.612-0.67c0.099-0.357,1.963-7.279,0-12.863  c4.788,2.793,12.787,6.765,15.808,4.188c0.142-0.121,0.407-0.308,0.596-0.305c0.422,0.037,1.157,0.926,1.806,1.71  c1.583,1.912,3.975,4.804,8.532,5.002c5.65,0.24,10.213-1.5,12.447-2.566C56.094,76.03,57.908,78,60.178,78  c1.738,0,3.209-1.158,4.407-3.09c1.29,2.541,2.953,4.111,4.979,4.111c4.712,0,7.468-8.471,8.105-17.953  c0.005,0,0.01-0.001,0.015-0.001c0.701,0,1.348,0.11,1.923,0.328c0.275,0.104,0.577,0.224,0.897,0.349  c1.682,0.659,3.774,1.479,4.982,1.479c0.458,0,1.018-0.097,1.283-0.848c0.17-0.481,0.195-1.05,0.072-1.601  c-0.358-1.607-1.958-2.738-2.378-2.915c-1.385-0.582-6.656-1.963-6.665-2.4l11.868-18.767l7.646,5.932  c0.183,0.142,0.398,0.21,0.612,0.21c0.299,0,0.594-0.133,0.791-0.387C99.057,42.01,98.978,41.382,98.541,41.043z M25.774,25.673  l-3.907,2.072c-0.294,0.156-0.468,0.45-0.45,0.76s0.225,0.586,0.536,0.712l5.833,2.375c-2.431,0.073-5.789-0.18-8.582-1.639  c-0.063-1.653-0.221-3.264-0.541-4.583L25.774,25.673z M45.346,54.969c-1.833,3.052-1,7.281-6.75,7.851S31.68,60.5,31.68,60.5  c-5.833,6.916-17.5-3.583-21.333-6.25c-2.309-1.605-4.279-1.88-5.485-1.845c0.497-0.716,1.161-1.148,2.029-1.292  c4.102-0.682,11.298,4.671,14.07,7.549c1.219,1.267,2.593,1.913,4.082,1.922c0.01,0,0.02,0,0.03,0c2.488,0,4.326-1.835,4.403-1.913  c0.225-0.228,0.323-0.545,0.276-0.855C29.706,54.377,22.459,46.779,18.68,43c-3.833-3.833-6-6.083-8.917-7.667  C5.647,32.34,8.22,27.96,8.226,27.95c0.771-0.933,1.641-1.622,2.324-2.079c2.392-1.6,4.795-1.98,5.54-1.632  c0.596,0.325,0.988,2.646,1.1,5.82c-0.055,0.168-0.046,0.34,0.017,0.502c0.05,1.992-0.006,4.279-0.189,6.61  c-0.026,0.332,0.115,0.655,0.376,0.862l16.5,13.083c0.318,0.253,0.758,0.286,1.112,0.088c7.739-4.363,14.484-2.359,15.806-1.893  c0.273,0.393,0.523,0.756,0.74,1.073C49.941,51.088,46.698,52.718,45.346,54.969z M60.178,75c-1.953,0-4.84-6.708-5.209-17.031  h3.521c1.654,0,3-1.346,3-3s-1.346-3-3-3h-3.441C55.637,42.54,58.325,36.5,60.178,36.5c2.09,0,5.25,7.678,5.25,19.25  S62.268,75,60.178,75z"/><circle cx="14.3" cy="28.792" r="1.708"/><text x="0" y="115" fill="#000000" font-size="5px" font-weight="bold" font-family="'Helvetica Neue', Helvetica, Arial-Unicode, Arial, Sans-serif">Created by Jack</text><text x="0" y="120" fill="#000000" font-size="5px" font-weight="bold" font-family="'Helvetica Neue', Helvetica, Arial-Unicode, Arial, Sans-serif">from the Noun Project</text></svg>